<?xml version="1.0" encoding="UTF-8"?>
<svg id="b" data-name="logos" xmlns="http://www.w3.org/2000/svg" width="1811.958" height="375.865" viewBox="0 0 1811.958 375.865">
  <g id="c" data-name="Logotype">
    <path d="M664.968,310.403s-.546-3.389-.857-5.325c4.922-.755,9.381-1.409,13.83-2.135,2.031-.331,4.058-.731,6.059-1.227,4.974-1.232,7.809-4.609,8.5-9.905.421-3.225.844-6.473.925-9.719.72-28.879,1.384-57.76,2.018-86.641.173-7.894-1.146-15.555-3.647-22.994-12.791-38.049-26.532-75.706-42.075-112.61-1.583-3.758-3.484-7.382-5.439-10.946-3.092-5.637-7.817-8.761-13.958-9.547-3.046-.39-6.08-.883-9.47-1.381-.116-1.472-.224-2.853-.329-4.196h88.414c.168.997.396,2.349.653,3.871-4.024.442-8.674.64-13.028,2.436-3.501,1.444-5.445,5.215-4.621,8.911.302,1.353.64,2.694,1.082,3.997,8.162,24.108,16.391,48.191,24.672,72.254,4.14,12.032,8.425,24.009,12.665,36.002.49,1.386,1.118,2.717,2.04,4.933.98-2.424,1.712-4.049,2.306-5.728,12.074-34.152,24.059-68.339,33.613-103.399.987-3.621,2.528-7.293,1.758-11.273-.34-1.759-1.489-3.276-3.104-4.053-5.459-2.624-11.347-2.609-18.375-3.873.244-1.414.478-2.775.704-4.083h59.147l1.317,4.691s-6.279.605-9.131,1.383c-9.016,2.459-15.426,8.652-19.189,17.46-5.492,12.856-10.258,24.753-15.17,37.859-8.922,23.806-16.938,45.482-25.641,69.381-2.69,7.388-4.271,14.975-4.218,22.874.226,33.449.372,66.901.871,100.346.186,12.467,1.494,13.494,13.051,15.129,4.275.605,8.544,1.262,13.188,1.951.407,1.587,1.446,5.526,1.446,5.526,0,0-1.767,0-2.291,0-4.737-.008-9.297-.206-13.938-.367-23.704-.825-45.614-.829-69.874-.043-4.076.132-13.906.44-13.906.44Z" fill="#900" stroke-width="0"/>
    <path d="M856.961,0c44.981,5.095,136.121,5.208,172.68.158-1.006,24.053-2.007,47.974-3.041,72.683-.876.532-2.375,1.442-4.369,2.652-1.588-8.089-2.799-15.664-4.6-23.079-2.153-8.862-4.703-17.623-7.283-26.36-1.99-6.737-6.387-10.901-12.899-12.691-10.719-2.946-21.546-2.743-32.868-2.119-.148,2.874-.373,5.222-.374,7.57-.025,72.916-.109,145.832.027,218.748.03,16.168.837,32.334,1.32,48.5.057,1.924.169,3.875.525,5.756,1.161,6.127,3.078,7.949,9.07,8.973,7.412,1.267,14.704,2.612,22.111,3.906.182.032,1.134.243,1.134.243,0,0-1.177,3.736-1.578,4.966h-111.596c-.354-1.144-1.458-5.193-1.458-5.193,0,0,1.865-.219,2.447-.308,5.187-.797,9.905-1.571,15.098-2.323,1.804-.261,3.615-.532,5.386-.969,8.102-2.001,10.744-5.293,11.004-13.991.39-13.031.922-26.065.949-39.098.157-75.571.184-151.143.255-226.715.003-3.09,0-6.18,0-9.839-2.969-.158-5.182-.508-7.363-.35-7.047.511-14.112.951-21.113,1.897-9.377,1.267-16.046,6.692-19.415,16.101-4.674,13.058-9.132,26.204-13.627,39.333-1.077,3.146-1.937,6.375-3.013,9.956-1.757-.858-3.113-1.52-3.99-1.948,2.212-25.698,4.377-50.858,6.58-76.458Z" fill="#000" stroke-width="0"/>
    <path d="M1444.293,38.813c-3.421.306-6.686.476-9.919.914-6.806.922-8.967,3.218-9.286,10.535-.577,13.236-1.188,26.481-1.297,39.726-.438,53.225-.776,106.452-.967,159.678-.078,21.87-2.368,43.334-9.138,64.094-8.472,25.979-24.507,44.959-48.164,56.477-9.255,4.506-18.993,7.305-29.372,4.508-6.022-1.623-11.794-4.19-13.203-11.188-1.366-6.782,3.218-11.33,7.608-15.356,5.486-5.031,10.692-4.434,14.778,1.427,2.615,3.75,6.238,7.004,9.984,9.531,7.051,4.756,14.145,2.718,18.561-4.792,3.323-5.652,4.816-12.023,5.328-18.54.934-11.9,2.057-23.825,2.152-35.748.635-79.509,1.032-159.021,1.452-238.532.023-4.328-.262-8.681-.725-12.983-.506-4.709-3.275-7.323-7.725-7.907-3.472-.455-6.953-.841-10.425-1.297-1.573-.207-3.135-.51-5.159-.845.379-1.88.664-3.292,1.091-5.408,28.137,2.225,56.244,2.148,84.3-.029l.126,5.737Z" fill="#000" stroke-width="0"/>
    <path d="M486.137,309.99c.259-2.408.392-3.637.556-5.164,4.301-.669,8.34-1.317,12.386-1.922,8.122-1.215,10.218-3.428,10.568-12.235.871-21.918,2.108-43.84,2.248-65.767.323-50.837.118-101.678.04-152.517-.012-7.815-.402-15.634-.769-23.444-.308-6.543-1.919-8.346-8.072-9.198-4.253-.589-8.536-.94-13.197-1.44.078-1.83.136-3.211.192-4.531h86.524c.249.925.611,2.265.984,3.65-.842.447-1.352.901-1.912.985-4.277.644-8.596,1.037-12.841,1.854-5.766,1.11-7.301,2.906-8.089,8.92-.281,2.145-.359,4.33-.398,6.499-.578,31.927-1.443,63.853-1.618,95.783-.227,41.495.059,82.993.229,124.49.029,7.143.581,14.283.852,20.54,2.604,4.149,5.833,4.976,9.154,5.139,11.331.554,22.667.69,33.883-1.527,10.796-2.133,19.35-7.963,23.767-18.701,4.325-10.514,7.687-21.469,11.412-32.254.767-2.221,1.266-4.544,1.891-6.829.75-.216,1.342-.575,1.873-.495.758.114,1.473.55,2.421.935-1.955,22.625-3.892,45.052-5.887,68.136-48.758-3.045-97.084-2.952-146.195-.909Z" fill="#900" stroke-width="0"/>
    <path d="M387.502,37.845c.545-2.012.868-3.204,1.103-4.072h84.725c.132,1.037.634,4.454.634,4.454,0,0-3.048.166-3.9.238-2.875.243-4.743.475-6.836.993-7.405,1.831-9.949,3.98-10.255,12.022-.454,11.937-1.012,23.88-1.042,35.822-.13,51.267-.191,102.534-.036,153.801.047,15.633.778,31.267,1.367,46.893.463,12.258,3.189,15.131,14.707,16.284,2.018.202,4.033.44,6.557.718-.239,1.995-.429,3.572-.591,4.928h-86.282v-4.739c2.875-.323,5.49-.633,8.108-.907,10.292-1.077,13.413-4.375,13.95-15.135.444-8.891.982-17.793.997-26.69.106-65.822.11-131.644.079-197.466-.002-4.978-.448-9.962-.81-14.933-.402-5.526-3.413-8.666-8.479-9.66-4.41-.865-8.84-1.615-13.996-2.549Z" fill="#900" stroke-width="0"/>
    <path d="M1811.752,33.777h-64.57c-.179,1.309-.341,2.49-.548,4.006,5.014.646,9.716,1.096,14.367,1.886,8.237,1.4,11.781,4.624,13.036,13.189,1.16,7.916,1.882,15.976,1.967,23.982.564,52.59.907,105.183,1.297,157.775.01,1.304-.274,2.611-.421,3.917-.415.072-.83.144-1.245.215-31.558-68.452-63.115-136.905-94.487-204.955h-60.371c.143,1.374.429,4.113.429,4.113,0,0,7.322,1.105,10.761,1.76,6.175,1.176,10.668,4.002,13.13,10.343,1.741,4.484,2.911,8.919,2.909,13.837-.03,68.247-.905,136.474-4.318,204.639-.39,7.792-1.284,15.578-2.364,23.301-.825,5.908-4.248,9.563-9.967,11.001-6.93,1.742-13.835,2.028-20.847.903-4.693-.753-8.035-3.378-9.739-7.992-1.416-3.833-2.721-7.749-3.65-11.738-19.204-82.429-36.339-165.331-51.095-248.777-.317-1.794-.927-3.53-1.263-4.781-11.474,2.489-22.299,4.837-32.885,7.133-1.772,8.093-3.339,15.951-5.22,23.724-16.893,69.812-33.813,139.616-50.814,209.398-1.635,6.713-3.733,13.312-5.852,19.879-2.402,7.443-7.483,11.757-14.817,13.111-2.806.518-5.621.985-8.806,1.54.106,1.894.193,3.464.266,4.766h65.363c-.079-1.676-.146-3.116-.224-4.769-1.638-.314-3.029-.569-4.415-.848-4.442-.893-8.984-1.431-13.298-2.777-6.402-1.997-8.657-5.376-8.646-12.471.006-3.885.283-7.853,1.06-11.641,5.048-24.604,10.255-49.171,15.459-73.739.342-1.616,1.09-3.136,1.614-4.603h52.841c.441,1.435.852,2.421,1.045,3.453,2.901,15.547,5.779,31.098,8.65,46.65,2.399,12.996,4.868,25.978,7.118,39.003.684,3.959,2.082,8.074-.806,13.176-4.69,1.217-10.182,2.641-15.956,4.139v4.983c2.048,0,3.685-.002,5.322,0,25.754.032,51.508.067,77.262.091,1.442.001,2.883-.106,4.325-.13,14.824-.256,29.648-.598,44.474-.706,5.347-.039,9.591.338,14.942.556.563.023,3.306.097,3.306.097,0,0-.353-3.836-.473-5.495-6.314-1.096-12.195-2.065-18.058-3.149-5.783-1.069-9.045-4.951-10.059-10.855-.621-3.618-1.003-7.321-1.087-10.996-.489-21.509-1.094-43.019-1.221-64.531-.263-44.77-.252-89.541-.353-134.312-.005-2.123,0-4.245,0-6.368.509-.109,1.017-.219,1.526-.328,36.045,79.9,72.09,159.799,108.123,239.671,6.74-1.335,13.171-2.61,20.299-4.022v-6.994c0-23.689.058-47.379-.012-71.068-.147-49.772.071-99.537,2.675-149.25.522-9.967,1.518-19.912,2.504-29.844.696-7.014,3.96-11.509,10.945-13.083,3.598-.81,11.078-2.066,11.078-2.066,0,0-.151-2.888-.206-3.95ZM1485.265,190.24c8.131-41.037,17.37-81.1,27.452-121.162,8.044,40.145,14.971,80.413,22.246,121.162h-49.698Z" fill="#000" stroke-width="0"/>
    <path d="M207.447,106.431c-1.874-17.063-6.095-33.596-13.185-49.197-13.544-29.801-35.212-47.792-66.589-52.389-16.809-2.462-33.606-2.595-50.503-2.144-18.688.498-37.39.478-56.086.527-5.464.015-10.929-.527-16.395-.743-.625-.025-1.267.411-2.208.742.084,1.571.168,3.132.266,4.963,5.351.645,10.354,1.041,15.288,1.89,7.734,1.33,9.237,3.246,9.393,11.354.362,18.822,1.016,37.647.936,56.467-.252,59.371-.727,118.741-1.264,178.11-.1,11.093-.827,22.183-1.372,33.269-.43,8.76-3.149,12.063-11.26,13.737-2.223.459-4.533.444-6.802.653-2.462.227-4.924.463-7.664.721v5.965c3.589,0,6.54.193,9.462-.031,20.742-1.588,41.473-1.396,62.223-.086,15.288.965,30.526.443,45.68-2.339,28.542-5.239,50.795-20.464,66.405-46.348,8.921-14.793,14.774-30.969,18.576-47.97,7.911-35.372,9.051-71.179,5.1-107.151ZM155.848,216.294c-2.777,18.891-7.037,37.308-15.14,54.574-12.359,26.333-35.975,34.227-60.05,31.279-1.706-.209-3.321-1.247-5.804-2.224-.443-5.191-1.08-9.714-1.172-14.25-.428-20.988-1.016-41.98-.975-62.97.111-55.739.447-111.477.863-167.215.087-11.571.867-23.138,1.406-34.703.368-7.912,1.858-10.086,9.152-10.765,19.439-1.811,36.605,3.291,49.808,19.556,8.973,11.054,14.146,24.076,17.757,37.917,4.999,19.163,7.346,38.782,8.061,58.569,1.09,30.172.494,60.308-3.905,90.233Z" fill="#900" stroke-width="0"/>
    <path d="M1205.006,305.41c-8.692.922-14.248-2.832-16.802-11.718-.947-3.294-1.496-6.785-1.729-10.223-.648-9.533-.952-19.092-1.545-28.629-.66-10.615-.996-21.29-2.354-31.812-2.47-19.138-11.247-34.243-27.441-44.052-8.673-5.253-18.058-8.356-27.817-10.357-2.437-.499-4.867-1.032-7.301-1.549,1.406-1.583,2.728-1.969,4.035-2.403,6.661-2.214,13.553-3.869,19.932-6.774,17.397-7.921,29.458-21.288,34.572-40.809,3.569-13.621,3.75-27.458.749-41.269-5.079-23.372-17.81-36.081-40.07-40.213-15.736-2.921-31.577-2.47-47.457-2.185-18.322.329-36.654.025-54.981-.002-3.257-.005-6.515,0-9.953,0-.446,1.345-.838,2.526-1.544,4.654,3.604.528,6.42.948,9.237,1.352,2.855.41,5.746.629,8.56,1.245,4.649,1.018,5.93,2.338,6.403,7.349.489,5.178.677,10.408.682,15.615.061,67.15.1,134.299.037,201.449-.008,8.03-.556,16.065-1.021,24.086-.63,10.877-3.587,13.987-13.992,15.09-2.615.277-5.233.526-7.975.801v4.904h86.348c.199-1.383.425-2.952.685-4.763-4.967-.763-9.462-1.243-13.869-2.182-5.95-1.269-7.666-3.413-8.019-9.685-.488-8.674-1.068-17.355-1.164-26.039-.327-29.769-.468-59.54-.649-89.311-.013-2.099.221-4.2.373-6.88,2.643,0,4.871-.118,7.084.024,4.926.317,9.891.446,14.759,1.218,14.442,2.288,21.538,9.336,24.076,24.584,1.384,8.313,1.938,16.802,2.512,25.239,1.003,14.733,1.592,29.498,2.632,44.228.599,8.48,2.425,16.722,6.032,24.434,4.115,8.798,10.464,15.089,19.252,18.239,13.67,4.899,27.492,3.985,41.699.812.276-1.847.505-3.38.789-5.284-2.001.35-3.376.673-4.767.82ZM1090.946,164.265c-.128-1.966-.393-4.048-.38-6.128.19-29.97.363-59.94.675-89.909.07-6.723.548-13.45,1.075-20.155.177-2.249,1.089-4.435,1.619-6.47,7.865-2.759,14.591-2.433,21.218-.313,8.333,2.666,14.848,8.047,17.679,16.806,2.37,7.331,4.273,15.034,4.984,22.716,1.462,15.786,1.444,31.656-.767,47.431-.15,1.073-.263,2.154-.463,3.217-3.902,20.737-15.431,36.09-45.641,32.805Z" fill="#000" stroke-width="0"/>
    <path d="M1364.565,117.66c-3.619-19.549-9.424-38.229-20.15-54.86-8.922-13.834-20.372-24.545-35.653-29.819-28.884-9.968-62.359-3.894-84.602,26.732-8.612,11.857-14.874,25.024-19.071,39.208-13.325,45.037-13.624,90.592-4.089,136.385,3.518,16.893,9.643,32.746,19.316,46.863,10.639,15.527,24.584,26.051,42.388,30.608,8.495,2.175,17.121,2.536,25.786,2.02,20.893-1.243,38.003-10.402,51.171-27.59,9.611-12.545,15.606-27.018,19.793-42.362,6.89-25.247,9.091-51.137,9.09-79.444.302-14.629-.93-31.269-3.98-47.743ZM1316.395,257.911c-1.793,10.277-4.327,20.33-8.495,29.847-1.291,2.948-2.783,5.813-4.356,8.607-9.228,16.391-30.954,14.413-39.72,2.65-5.417-7.269-9.306-15.34-11.968-24.092-4.679-15.382-6.701-31.311-8.457-47.27-2.736-24.866-3.27-49.84-2.64-74.837.697-27.631,3.216-55.042,10.033-81.843,2.312-9.091,6.114-17.467,11.289-25.182,11.182-16.67,32.583-13.296,41.259,1.09,6.317,10.475,9.429,22.131,11.752,34.066,5.949,30.563,7.703,61.527,7.602,92.652.134,28.29-1.437,56.438-6.299,84.312Z" fill="#000" stroke-width="0"/>
    <path d="M373.27,304.1c-7.392-.215-11.879-4.277-13.904-11.556-1.448-5.203-2.838-10.43-4.061-15.696-17.525-75.473-33.032-151.411-46.991-227.703-1.161-6.345-2.316-12.692-3.431-18.805-11.342,2.456-22.158,4.799-32.895,7.124-3.879,16.584-7.645,33.223-11.669,49.792-15.209,62.639-30.488,125.26-45.792,187.874-1.18,4.826-2.687,9.568-4.171,14.305-2.742,8.749-8.655,13.441-17.208,14.64-2.206.309-4.412.62-6.993.983.156,2.074.274,3.644.368,4.896h65.367c-.108-1.733-.198-3.165-.304-4.863-1.853-.299-3.458-.509-5.045-.823-4.04-.8-8.159-1.331-12.086-2.543-7.058-2.179-9.313-5.53-9.199-13.345.053-3.671.346-7.408,1.082-10.988,5.062-24.597,8.724-40.107,13.927-64.671.341-1.61,2.982-13.441,3.501-14.867,17.874,0,34.461.13,51.992.13.44,1.453,2.314,12.063,2.507,13.095,2.9,15.544,4.808,22.607,7.679,38.157,2.399,12.994,4.87,25.974,7.119,38.996.45,2.607,1.211,5.283.848,8.26-.344,2.815-2.441,5.102-5.186,5.813-3.829.991-8.039,2.081-12.368,3.202-.139,1.487-.274,2.931-.427,4.57h85.423v-5.243c-3.198-.301-5.636-.664-8.081-.735ZM246.183,186.963c-.692-5.963,21.856-106.621,26.896-119.341,7.366,41.5,14.098,79.43,21.199,119.434-6.426.748-37.416-.093-48.095-.093Z" fill="#900" stroke-width="0"/>
  </g>
</svg>